<svg
 xmlns="http://www.w3.org/2000/svg"
 width="600"
 height="600"
 viewBox="-300 -300 600 600"
 xmlns:xlink="http://www.w3.org/1999/xlink"
>
<g
 stroke-width="0.70292"
 stroke="black"
 fill="none"
>
<path
 id="1"
 d="M 260.000,0.000 L 106.066,-106.066"
 />
</g>
<g
 stroke-width="0.70292"
 stroke="black"
 fill="none"
>
<path
 id="2"
 d="M 260.000,0.000 L 106.066,106.066"
 />
</g>
<g
 stroke-width="0.70292"
 stroke="black"
 fill="none"
>
<path
 id="3"
 d="M 260.000,0.000 L 183.848,183.848"
 />
</g>
<g
 stroke-width="0.70292"
 stroke="black"
 fill="none"
>
<path
 id="4"
 d="M 260.000,0.000 L 183.848,-183.848"
 />
</g>
<g
 stroke-width="0.70292"
 stroke="black"
 fill="none"
>
<path
 id="5"
 d="M 260.000,0.000 L 210.000,0.000"
 />
</g>
<g
 stroke-width="0.70292"
 stroke="black"
 fill="none"
>
<path
 id="6"
 d="M 106.066,-106.066 L 260.000,0.000"
 />
</g>
<g
 stroke-width="0.70292"
 stroke="black"
 fill="none"
>
<path
 id="7"
 d="M 106.066,-106.066 L -150.000,-0.000"
 />
</g>
<g
 stroke-width="0.70292"
 stroke="black"
 fill="none"
>
<path
 id="8"
 d="M 106.066,-106.066 L 0.000,150.000"
 />
</g>
<g
 stroke-width="0.70292"
 stroke="black"
 fill="none"
>
<path
 id="9"
 d="M 106.066,-106.066 L 0.000,-260.000"
 />
</g>
<g
 stroke-width="0.70292"
 stroke="black"
 fill="none"
>
<path
 id="10"
 d="M 106.066,-106.066 L 63.640,-63.640"
 />
</g>
<g
 stroke-width="0.70292"
 stroke="black"
 fill="none"
>
<path
 id="11"
 d="M 106.066,106.066 L 260.000,0.000"
 />
</g>
<g
 stroke-width="0.70292"
 stroke="black"
 fill="none"
>
<path
 id="12"
 d="M 106.066,106.066 L -150.000,-0.000"
 />
</g>
<g
 stroke-width="0.70292"
 stroke="black"
 fill="none"
>
<path
 id="13"
 d="M 106.066,106.066 L 0.000,260.000"
 />
</g>
<g
 stroke-width="0.70292"
 stroke="black"
 fill="none"
>
<path
 id="14"
 d="M 106.066,106.066 L 0.000,-150.000"
 />
</g>
<g
 stroke-width="0.70292"
 stroke="black"
 fill="none"
>
<path
 id="15"
 d="M 106.066,106.066 L 63.640,63.640"
 />
</g>
<g
 stroke-width="0.70292"
 stroke="black"
 fill="none"
>
<path
 id="16"
 d="M -150.000,-0.000 L 106.066,-106.066"
 />
</g>
<g
 stroke-width="0.70292"
 stroke="black"
 fill="none"
>
<path
 id="17"
 d="M -150.000,-0.000 L 106.066,106.066"
 />
</g>
<g
 stroke-width="0.70292"
 stroke="black"
 fill="none"
>
<path
 id="18"
 d="M -150.000,-0.000 L -183.848,183.848"
 />
</g>
<g
 stroke-width="0.70292"
 stroke="black"
 fill="none"
>
<path
 id="19"
 d="M -150.000,-0.000 L -183.848,-183.848"
 />
</g>
<g
 stroke-width="0.70292"
 stroke="black"
 fill="none"
>
<path
 id="20"
 d="M -150.000,-0.000 L -90.000,-0.000"
 />
</g>
<g
 stroke-width="0.70292"
 stroke="black"
 fill="none"
>
<path
 id="21"
 d="M 183.848,183.848 L 260.000,0.000"
 />
</g>
<g
 stroke-width="0.70292"
 stroke="black"
 fill="none"
>
<path
 id="22"
 d="M 183.848,183.848 L 0.000,150.000"
 />
</g>
<g
 stroke-width="0.70292"
 stroke="black"
 fill="none"
>
<path
 id="23"
 d="M 183.848,183.848 L 0.000,260.000"
 />
</g>
<g
 stroke-width="0.70292"
 stroke="black"
 fill="none"
>
<path
 id="24"
 d="M 183.848,183.848 L 150.000,0.000"
 />
</g>
<g
 stroke-width="0.70292"
 stroke="black"
 fill="none"
>
<path
 id="25"
 d="M 183.848,183.848 L 148.492,148.492"
 />
</g>
<g
 stroke-width="0.70292"
 stroke="black"
 fill="none"
>
<path
 id="26"
 d="M 0.000,150.000 L 106.066,-106.066"
 />
</g>
<g
 stroke-width="0.70292"
 stroke="black"
 fill="none"
>
<path
 id="27"
 d="M 0.000,150.000 L 183.848,183.848"
 />
</g>
<g
 stroke-width="0.70292"
 stroke="black"
 fill="none"
>
<path
 id="28"
 d="M 0.000,150.000 L -183.848,183.848"
 />
</g>
<g
 stroke-width="0.70292"
 stroke="black"
 fill="none"
>
<path
 id="29"
 d="M 0.000,150.000 L -106.066,-106.066"
 />
</g>
<g
 stroke-width="0.70292"
 stroke="black"
 fill="none"
>
<path
 id="30"
 d="M 0.000,150.000 L 0.000,90.000"
 />
</g>
<g
 stroke-width="0.70292"
 stroke="black"
 fill="none"
>
<path
 id="31"
 d="M 0.000,260.000 L 106.066,106.066"
 />
</g>
<g
 stroke-width="0.70292"
 stroke="black"
 fill="none"
>
<path
 id="32"
 d="M 0.000,260.000 L 183.848,183.848"
 />
</g>
<g
 stroke-width="0.70292"
 stroke="black"
 fill="none"
>
<path
 id="33"
 d="M 0.000,260.000 L -183.848,183.848"
 />
</g>
<g
 stroke-width="0.70292"
 stroke="black"
 fill="none"
>
<path
 id="34"
 d="M 0.000,260.000 L -106.066,106.066"
 />
</g>
<g
 stroke-width="0.70292"
 stroke="black"
 fill="none"
>
<path
 id="35"
 d="M 0.000,260.000 L 0.000,210.000"
 />
</g>
<g
 stroke-width="0.70292"
 stroke="black"
 fill="none"
>
<path
 id="36"
 d="M -183.848,183.848 L -150.000,-0.000"
 />
</g>
<g
 stroke-width="0.70292"
 stroke="black"
 fill="none"
>
<path
 id="37"
 d="M -183.848,183.848 L 0.000,150.000"
 />
</g>
<g
 stroke-width="0.70292"
 stroke="black"
 fill="none"
>
<path
 id="38"
 d="M -183.848,183.848 L 0.000,260.000"
 />
</g>
<g
 stroke-width="0.70292"
 stroke="black"
 fill="none"
>
<path
 id="39"
 d="M -183.848,183.848 L -260.000,-0.000"
 />
</g>
<g
 stroke-width="0.70292"
 stroke="black"
 fill="none"
>
<path
 id="40"
 d="M -183.848,183.848 L -148.492,148.492"
 />
</g>
<g
 stroke-width="0.70292"
 stroke="black"
 fill="none"
>
<path
 id="41"
 d="M 183.848,-183.848 L 260.000,0.000"
 />
</g>
<g
 stroke-width="0.70292"
 stroke="black"
 fill="none"
>
<path
 id="42"
 d="M 183.848,-183.848 L 0.000,-260.000"
 />
</g>
<g
 stroke-width="0.70292"
 stroke="black"
 fill="none"
>
<path
 id="43"
 d="M 183.848,-183.848 L 0.000,-150.000"
 />
</g>
<g
 stroke-width="0.70292"
 stroke="black"
 fill="none"
>
<path
 id="44"
 d="M 183.848,-183.848 L 150.000,0.000"
 />
</g>
<g
 stroke-width="0.70292"
 stroke="black"
 fill="none"
>
<path
 id="45"
 d="M 183.848,-183.848 L 148.492,-148.492"
 />
</g>
<g
 stroke-width="0.70292"
 stroke="black"
 fill="none"
>
<path
 id="46"
 d="M 0.000,-260.000 L 106.066,-106.066"
 />
</g>
<g
 stroke-width="0.70292"
 stroke="black"
 fill="none"
>
<path
 id="47"
 d="M 0.000,-260.000 L 183.848,-183.848"
 />
</g>
<g
 stroke-width="0.70292"
 stroke="black"
 fill="none"
>
<path
 id="48"
 d="M 0.000,-260.000 L -183.848,-183.848"
 />
</g>
<g
 stroke-width="0.70292"
 stroke="black"
 fill="none"
>
<path
 id="49"
 d="M 0.000,-260.000 L -106.066,-106.066"
 />
</g>
<g
 stroke-width="0.70292"
 stroke="black"
 fill="none"
>
<path
 id="50"
 d="M 0.000,-260.000 L 0.000,-210.000"
 />
</g>
<g
 stroke-width="0.70292"
 stroke="black"
 fill="none"
>
<path
 id="51"
 d="M 0.000,-150.000 L 106.066,106.066"
 />
</g>
<g
 stroke-width="0.70292"
 stroke="black"
 fill="none"
>
<path
 id="52"
 d="M 0.000,-150.000 L 183.848,-183.848"
 />
</g>
<g
 stroke-width="0.70292"
 stroke="black"
 fill="none"
>
<path
 id="53"
 d="M 0.000,-150.000 L -183.848,-183.848"
 />
</g>
<g
 stroke-width="0.70292"
 stroke="black"
 fill="none"
>
<path
 id="54"
 d="M 0.000,-150.000 L -106.066,106.066"
 />
</g>
<g
 stroke-width="0.70292"
 stroke="black"
 fill="none"
>
<path
 id="55"
 d="M 0.000,-150.000 L 0.000,-90.000"
 />
</g>
<g
 stroke-width="0.70292"
 stroke="black"
 fill="none"
>
<path
 id="56"
 d="M -183.848,-183.848 L -150.000,-0.000"
 />
</g>
<g
 stroke-width="0.70292"
 stroke="black"
 fill="none"
>
<path
 id="57"
 d="M -183.848,-183.848 L 0.000,-260.000"
 />
</g>
<g
 stroke-width="0.70292"
 stroke="black"
 fill="none"
>
<path
 id="58"
 d="M -183.848,-183.848 L 0.000,-150.000"
 />
</g>
<g
 stroke-width="0.70292"
 stroke="black"
 fill="none"
>
<path
 id="59"
 d="M -183.848,-183.848 L -260.000,-0.000"
 />
</g>
<g
 stroke-width="0.70292"
 stroke="black"
 fill="none"
>
<path
 id="60"
 d="M -183.848,-183.848 L -148.492,-148.492"
 />
</g>
<g
 stroke-width="0.70292"
 stroke="black"
 fill="none"
>
<path
 id="61"
 d="M 150.000,0.000 L 183.848,183.848"
 />
</g>
<g
 stroke-width="0.70292"
 stroke="black"
 fill="none"
>
<path
 id="62"
 d="M 150.000,0.000 L 183.848,-183.848"
 />
</g>
<g
 stroke-width="0.70292"
 stroke="black"
 fill="none"
>
<path
 id="63"
 d="M 150.000,0.000 L -106.066,-106.066"
 />
</g>
<g
 stroke-width="0.70292"
 stroke="black"
 fill="none"
>
<path
 id="64"
 d="M 150.000,0.000 L -106.066,106.066"
 />
</g>
<g
 stroke-width="0.70292"
 stroke="black"
 fill="none"
>
<path
 id="65"
 d="M 150.000,0.000 L 90.000,0.000"
 />
</g>
<g
 stroke-width="0.70292"
 stroke="black"
 fill="none"
>
<path
 id="66"
 d="M -106.066,-106.066 L 0.000,150.000"
 />
</g>
<g
 stroke-width="0.70292"
 stroke="black"
 fill="none"
>
<path
 id="67"
 d="M -106.066,-106.066 L 0.000,-260.000"
 />
</g>
<g
 stroke-width="0.70292"
 stroke="black"
 fill="none"
>
<path
 id="68"
 d="M -106.066,-106.066 L 150.000,0.000"
 />
</g>
<g
 stroke-width="0.70292"
 stroke="black"
 fill="none"
>
<path
 id="69"
 d="M -106.066,-106.066 L -260.000,-0.000"
 />
</g>
<g
 stroke-width="0.70292"
 stroke="black"
 fill="none"
>
<path
 id="70"
 d="M -106.066,-106.066 L -63.640,-63.640"
 />
</g>
<g
 stroke-width="0.70292"
 stroke="black"
 fill="none"
>
<path
 id="71"
 d="M -106.066,106.066 L 0.000,260.000"
 />
</g>
<g
 stroke-width="0.70292"
 stroke="black"
 fill="none"
>
<path
 id="72"
 d="M -106.066,106.066 L 0.000,-150.000"
 />
</g>
<g
 stroke-width="0.70292"
 stroke="black"
 fill="none"
>
<path
 id="73"
 d="M -106.066,106.066 L 150.000,0.000"
 />
</g>
<g
 stroke-width="0.70292"
 stroke="black"
 fill="none"
>
<path
 id="74"
 d="M -106.066,106.066 L -260.000,-0.000"
 />
</g>
<g
 stroke-width="0.70292"
 stroke="black"
 fill="none"
>
<path
 id="75"
 d="M -106.066,106.066 L -63.640,63.640"
 />
</g>
<g
 stroke-width="0.70292"
 stroke="black"
 fill="none"
>
<path
 id="76"
 d="M -260.000,-0.000 L -183.848,183.848"
 />
</g>
<g
 stroke-width="0.70292"
 stroke="black"
 fill="none"
>
<path
 id="77"
 d="M -260.000,-0.000 L -183.848,-183.848"
 />
</g>
<g
 stroke-width="0.70292"
 stroke="black"
 fill="none"
>
<path
 id="78"
 d="M -260.000,-0.000 L -106.066,-106.066"
 />
</g>
<g
 stroke-width="0.70292"
 stroke="black"
 fill="none"
>
<path
 id="79"
 d="M -260.000,-0.000 L -106.066,106.066"
 />
</g>
<g
 stroke-width="0.70292"
 stroke="black"
 fill="none"
>
<path
 id="80"
 d="M -260.000,-0.000 L -210.000,-0.000"
 />
</g>
<g
 stroke-width="0.70292"
 stroke="black"
 fill="none"
>
<path
 id="81"
 d="M 210.000,0.000 L 260.000,0.000"
 />
</g>
<g
 stroke-width="0.70292"
 stroke="black"
 fill="none"
>
<path
 id="82"
 d="M 210.000,0.000 L 63.640,-63.640"
 />
</g>
<g
 stroke-width="0.70292"
 stroke="black"
 fill="none"
>
<path
 id="83"
 d="M 210.000,0.000 L 63.640,63.640"
 />
</g>
<g
 stroke-width="0.70292"
 stroke="black"
 fill="none"
>
<path
 id="84"
 d="M 210.000,0.000 L 148.492,148.492"
 />
</g>
<g
 stroke-width="0.70292"
 stroke="black"
 fill="none"
>
<path
 id="85"
 d="M 210.000,0.000 L 148.492,-148.492"
 />
</g>
<g
 stroke-width="0.70292"
 stroke="black"
 fill="none"
>
<path
 id="86"
 d="M 63.640,-63.640 L 106.066,-106.066"
 />
</g>
<g
 stroke-width="0.70292"
 stroke="black"
 fill="none"
>
<path
 id="87"
 d="M 63.640,-63.640 L 210.000,0.000"
 />
</g>
<g
 stroke-width="0.70292"
 stroke="black"
 fill="none"
>
<path
 id="88"
 d="M 63.640,-63.640 L -90.000,-0.000"
 />
</g>
<g
 stroke-width="0.70292"
 stroke="black"
 fill="none"
>
<path
 id="89"
 d="M 63.640,-63.640 L 0.000,90.000"
 />
</g>
<g
 stroke-width="0.70292"
 stroke="black"
 fill="none"
>
<path
 id="90"
 d="M 63.640,-63.640 L 0.000,-210.000"
 />
</g>
<g
 stroke-width="0.70292"
 stroke="black"
 fill="none"
>
<path
 id="91"
 d="M 63.640,63.640 L 106.066,106.066"
 />
</g>
<g
 stroke-width="0.70292"
 stroke="black"
 fill="none"
>
<path
 id="92"
 d="M 63.640,63.640 L 210.000,0.000"
 />
</g>
<g
 stroke-width="0.70292"
 stroke="black"
 fill="none"
>
<path
 id="93"
 d="M 63.640,63.640 L -90.000,-0.000"
 />
</g>
<g
 stroke-width="0.70292"
 stroke="black"
 fill="none"
>
<path
 id="94"
 d="M 63.640,63.640 L 0.000,210.000"
 />
</g>
<g
 stroke-width="0.70292"
 stroke="black"
 fill="none"
>
<path
 id="95"
 d="M 63.640,63.640 L 0.000,-90.000"
 />
</g>
<g
 stroke-width="0.70292"
 stroke="black"
 fill="none"
>
<path
 id="96"
 d="M -90.000,-0.000 L -150.000,-0.000"
 />
</g>
<g
 stroke-width="0.70292"
 stroke="black"
 fill="none"
>
<path
 id="97"
 d="M -90.000,-0.000 L 63.640,-63.640"
 />
</g>
<g
 stroke-width="0.70292"
 stroke="black"
 fill="none"
>
<path
 id="98"
 d="M -90.000,-0.000 L 63.640,63.640"
 />
</g>
<g
 stroke-width="0.70292"
 stroke="black"
 fill="none"
>
<path
 id="99"
 d="M -90.000,-0.000 L -148.492,148.492"
 />
</g>
<g
 stroke-width="0.70292"
 stroke="black"
 fill="none"
>
<path
 id="100"
 d="M -90.000,-0.000 L -148.492,-148.492"
 />
</g>
<g
 stroke-width="0.70292"
 stroke="black"
 fill="none"
>
<path
 id="101"
 d="M 148.492,148.492 L 183.848,183.848"
 />
</g>
<g
 stroke-width="0.70292"
 stroke="black"
 fill="none"
>
<path
 id="102"
 d="M 148.492,148.492 L 210.000,0.000"
 />
</g>
<g
 stroke-width="0.70292"
 stroke="black"
 fill="none"
>
<path
 id="103"
 d="M 148.492,148.492 L 0.000,90.000"
 />
</g>
<g
 stroke-width="0.70292"
 stroke="black"
 fill="none"
>
<path
 id="104"
 d="M 148.492,148.492 L 0.000,210.000"
 />
</g>
<g
 stroke-width="0.70292"
 stroke="black"
 fill="none"
>
<path
 id="105"
 d="M 148.492,148.492 L 90.000,0.000"
 />
</g>
<g
 stroke-width="0.70292"
 stroke="black"
 fill="none"
>
<path
 id="106"
 d="M 0.000,90.000 L 0.000,150.000"
 />
</g>
<g
 stroke-width="0.70292"
 stroke="black"
 fill="none"
>
<path
 id="107"
 d="M 0.000,90.000 L 63.640,-63.640"
 />
</g>
<g
 stroke-width="0.70292"
 stroke="black"
 fill="none"
>
<path
 id="108"
 d="M 0.000,90.000 L 148.492,148.492"
 />
</g>
<g
 stroke-width="0.70292"
 stroke="black"
 fill="none"
>
<path
 id="109"
 d="M 0.000,90.000 L -148.492,148.492"
 />
</g>
<g
 stroke-width="0.70292"
 stroke="black"
 fill="none"
>
<path
 id="110"
 d="M 0.000,90.000 L -63.640,-63.640"
 />
</g>
<g
 stroke-width="0.70292"
 stroke="black"
 fill="none"
>
<path
 id="111"
 d="M 0.000,210.000 L 0.000,260.000"
 />
</g>
<g
 stroke-width="0.70292"
 stroke="black"
 fill="none"
>
<path
 id="112"
 d="M 0.000,210.000 L 63.640,63.640"
 />
</g>
<g
 stroke-width="0.70292"
 stroke="black"
 fill="none"
>
<path
 id="113"
 d="M 0.000,210.000 L 148.492,148.492"
 />
</g>
<g
 stroke-width="0.70292"
 stroke="black"
 fill="none"
>
<path
 id="114"
 d="M 0.000,210.000 L -148.492,148.492"
 />
</g>
<g
 stroke-width="0.70292"
 stroke="black"
 fill="none"
>
<path
 id="115"
 d="M 0.000,210.000 L -63.640,63.640"
 />
</g>
<g
 stroke-width="0.70292"
 stroke="black"
 fill="none"
>
<path
 id="116"
 d="M -148.492,148.492 L -183.848,183.848"
 />
</g>
<g
 stroke-width="0.70292"
 stroke="black"
 fill="none"
>
<path
 id="117"
 d="M -148.492,148.492 L -90.000,-0.000"
 />
</g>
<g
 stroke-width="0.70292"
 stroke="black"
 fill="none"
>
<path
 id="118"
 d="M -148.492,148.492 L 0.000,90.000"
 />
</g>
<g
 stroke-width="0.70292"
 stroke="black"
 fill="none"
>
<path
 id="119"
 d="M -148.492,148.492 L 0.000,210.000"
 />
</g>
<g
 stroke-width="0.70292"
 stroke="black"
 fill="none"
>
<path
 id="120"
 d="M -148.492,148.492 L -210.000,-0.000"
 />
</g>
<g
 stroke-width="0.70292"
 stroke="black"
 fill="none"
>
<path
 id="121"
 d="M 148.492,-148.492 L 183.848,-183.848"
 />
</g>
<g
 stroke-width="0.70292"
 stroke="black"
 fill="none"
>
<path
 id="122"
 d="M 148.492,-148.492 L 210.000,0.000"
 />
</g>
<g
 stroke-width="0.70292"
 stroke="black"
 fill="none"
>
<path
 id="123"
 d="M 148.492,-148.492 L 0.000,-210.000"
 />
</g>
<g
 stroke-width="0.70292"
 stroke="black"
 fill="none"
>
<path
 id="124"
 d="M 148.492,-148.492 L 0.000,-90.000"
 />
</g>
<g
 stroke-width="0.70292"
 stroke="black"
 fill="none"
>
<path
 id="125"
 d="M 148.492,-148.492 L 90.000,0.000"
 />
</g>
<g
 stroke-width="0.70292"
 stroke="black"
 fill="none"
>
<path
 id="126"
 d="M 0.000,-210.000 L 0.000,-260.000"
 />
</g>
<g
 stroke-width="0.70292"
 stroke="black"
 fill="none"
>
<path
 id="127"
 d="M 0.000,-210.000 L 63.640,-63.640"
 />
</g>
<g
 stroke-width="0.70292"
 stroke="black"
 fill="none"
>
<path
 id="128"
 d="M 0.000,-210.000 L 148.492,-148.492"
 />
</g>
<g
 stroke-width="0.70292"
 stroke="black"
 fill="none"
>
<path
 id="129"
 d="M 0.000,-210.000 L -148.492,-148.492"
 />
</g>
<g
 stroke-width="0.70292"
 stroke="black"
 fill="none"
>
<path
 id="130"
 d="M 0.000,-210.000 L -63.640,-63.640"
 />
</g>
<g
 stroke-width="0.70292"
 stroke="black"
 fill="none"
>
<path
 id="131"
 d="M 0.000,-90.000 L 0.000,-150.000"
 />
</g>
<g
 stroke-width="0.70292"
 stroke="black"
 fill="none"
>
<path
 id="132"
 d="M 0.000,-90.000 L 63.640,63.640"
 />
</g>
<g
 stroke-width="0.70292"
 stroke="black"
 fill="none"
>
<path
 id="133"
 d="M 0.000,-90.000 L 148.492,-148.492"
 />
</g>
<g
 stroke-width="0.70292"
 stroke="black"
 fill="none"
>
<path
 id="134"
 d="M 0.000,-90.000 L -148.492,-148.492"
 />
</g>
<g
 stroke-width="0.70292"
 stroke="black"
 fill="none"
>
<path
 id="135"
 d="M 0.000,-90.000 L -63.640,63.640"
 />
</g>
<g
 stroke-width="0.70292"
 stroke="black"
 fill="none"
>
<path
 id="136"
 d="M -148.492,-148.492 L -183.848,-183.848"
 />
</g>
<g
 stroke-width="0.70292"
 stroke="black"
 fill="none"
>
<path
 id="137"
 d="M -148.492,-148.492 L -90.000,-0.000"
 />
</g>
<g
 stroke-width="0.70292"
 stroke="black"
 fill="none"
>
<path
 id="138"
 d="M -148.492,-148.492 L 0.000,-210.000"
 />
</g>
<g
 stroke-width="0.70292"
 stroke="black"
 fill="none"
>
<path
 id="139"
 d="M -148.492,-148.492 L 0.000,-90.000"
 />
</g>
<g
 stroke-width="0.70292"
 stroke="black"
 fill="none"
>
<path
 id="140"
 d="M -148.492,-148.492 L -210.000,-0.000"
 />
</g>
<g
 stroke-width="0.70292"
 stroke="black"
 fill="none"
>
<path
 id="141"
 d="M 90.000,0.000 L 150.000,0.000"
 />
</g>
<g
 stroke-width="0.70292"
 stroke="black"
 fill="none"
>
<path
 id="142"
 d="M 90.000,0.000 L 148.492,148.492"
 />
</g>
<g
 stroke-width="0.70292"
 stroke="black"
 fill="none"
>
<path
 id="143"
 d="M 90.000,0.000 L 148.492,-148.492"
 />
</g>
<g
 stroke-width="0.70292"
 stroke="black"
 fill="none"
>
<path
 id="144"
 d="M 90.000,0.000 L -63.640,-63.640"
 />
</g>
<g
 stroke-width="0.70292"
 stroke="black"
 fill="none"
>
<path
 id="145"
 d="M 90.000,0.000 L -63.640,63.640"
 />
</g>
<g
 stroke-width="0.70292"
 stroke="black"
 fill="none"
>
<path
 id="146"
 d="M -63.640,-63.640 L -106.066,-106.066"
 />
</g>
<g
 stroke-width="0.70292"
 stroke="black"
 fill="none"
>
<path
 id="147"
 d="M -63.640,-63.640 L 0.000,90.000"
 />
</g>
<g
 stroke-width="0.70292"
 stroke="black"
 fill="none"
>
<path
 id="148"
 d="M -63.640,-63.640 L 0.000,-210.000"
 />
</g>
<g
 stroke-width="0.70292"
 stroke="black"
 fill="none"
>
<path
 id="149"
 d="M -63.640,-63.640 L 90.000,0.000"
 />
</g>
<g
 stroke-width="0.70292"
 stroke="black"
 fill="none"
>
<path
 id="150"
 d="M -63.640,-63.640 L -210.000,-0.000"
 />
</g>
<g
 stroke-width="0.70292"
 stroke="black"
 fill="none"
>
<path
 id="151"
 d="M -63.640,63.640 L -106.066,106.066"
 />
</g>
<g
 stroke-width="0.70292"
 stroke="black"
 fill="none"
>
<path
 id="152"
 d="M -63.640,63.640 L 0.000,210.000"
 />
</g>
<g
 stroke-width="0.70292"
 stroke="black"
 fill="none"
>
<path
 id="153"
 d="M -63.640,63.640 L 0.000,-90.000"
 />
</g>
<g
 stroke-width="0.70292"
 stroke="black"
 fill="none"
>
<path
 id="154"
 d="M -63.640,63.640 L 90.000,0.000"
 />
</g>
<g
 stroke-width="0.70292"
 stroke="black"
 fill="none"
>
<path
 id="155"
 d="M -63.640,63.640 L -210.000,-0.000"
 />
</g>
<g
 stroke-width="0.70292"
 stroke="black"
 fill="none"
>
<path
 id="156"
 d="M -210.000,-0.000 L -260.000,-0.000"
 />
</g>
<g
 stroke-width="0.70292"
 stroke="black"
 fill="none"
>
<path
 id="157"
 d="M -210.000,-0.000 L -148.492,148.492"
 />
</g>
<g
 stroke-width="0.70292"
 stroke="black"
 fill="none"
>
<path
 id="158"
 d="M -210.000,-0.000 L -148.492,-148.492"
 />
</g>
<g
 stroke-width="0.70292"
 stroke="black"
 fill="none"
>
<path
 id="159"
 d="M -210.000,-0.000 L -63.640,-63.640"
 />
</g>
<g
 stroke-width="0.70292"
 stroke="black"
 fill="none"
>
<path
 id="160"
 d="M -210.000,-0.000 L -63.640,63.640"
 />
</g>
<g
 stroke-width="0.70292"
 stroke="black"
 fill="Red"
>
<path
 id="161"
 d="M 276.500,0.000 A 16.5 16.5 0.0 1 1 243.500,0.000 A 16.5 16.5 0.0 1 1 276.500,0.000"
 />
</g>
<text
 x="0"
 y="0"
 font-size="x-small"
 font-family="sans-serif"
 fill="black"
 text-anchor="middle"
 dominant-baseline="central"
 transform="translate(260.000,0.000)"
>
00000
</text>
<g
 stroke-width="0.70292"
 stroke="black"
 fill="Red"
>
<path
 id="162"
 d="M 122.566,-106.066 A 16.5 16.5 0.0 1 1 89.566,-106.066 A 16.5 16.5 0.0 1 1 122.566,-106.066"
 />
</g>
<text
 x="0"
 y="0"
 font-size="x-small"
 font-family="sans-serif"
 fill="black"
 text-anchor="middle"
 dominant-baseline="central"
 transform="translate(106.066,-106.066)"
>
01000
</text>
<g
 stroke-width="0.70292"
 stroke="black"
 fill="white"
>
<path
 id="163"
 d="M 122.566,106.066 A 16.5 16.5 0.0 1 1 89.566,106.066 A 16.5 16.5 0.0 1 1 122.566,106.066"
 />
</g>
<text
 x="0"
 y="0"
 font-size="x-small"
 font-family="sans-serif"
 fill="black"
 text-anchor="middle"
 dominant-baseline="central"
 transform="translate(106.066,106.066)"
>
10000
</text>
<g
 stroke-width="0.70292"
 stroke="black"
 fill="Red"
>
<path
 id="164"
 d="M -133.500,-0.000 A 16.5 16.500000000000004 0.0 1 1 -166.500,-0.000 A 16.5 16.500000000000004 0.0 1 1 -133.500,-0.000"
 />
</g>
<text
 x="0"
 y="0"
 font-size="x-small"
 font-family="sans-serif"
 fill="black"
 text-anchor="middle"
 dominant-baseline="central"
 transform="translate(-150.000,-0.000)"
>
11000
</text>
<g
 stroke-width="0.70292"
 stroke="black"
 fill="white"
>
<path
 id="165"
 d="M 200.348,183.848 A 16.5 16.50000000000003 0.0 1 1 167.348,183.848 A 16.5 16.50000000000003 0.0 1 1 200.348,183.848"
 />
</g>
<text
 x="0"
 y="0"
 font-size="x-small"
 font-family="sans-serif"
 fill="black"
 text-anchor="middle"
 dominant-baseline="central"
 transform="translate(183.848,183.848)"
>
00100
</text>
<g
 stroke-width="0.70292"
 stroke="black"
 fill="white"
>
<path
 id="166"
 d="M 16.500,150.000 A 16.5 16.5 0.0 1 1 -16.500,150.000 A 16.5 16.5 0.0 1 1 16.500,150.000"
 />
</g>
<text
 x="0"
 y="0"
 font-size="x-small"
 font-family="sans-serif"
 fill="black"
 text-anchor="middle"
 dominant-baseline="central"
 transform="translate(0.000,150.000)"
>
01100
</text>
<g
 stroke-width="0.70292"
 stroke="black"
 fill="white"
>
<path
 id="167"
 d="M 16.500,260.000 A 16.500000000000004 16.5 0.0 1 1 -16.500,260.000 A 16.500000000000004 16.5 0.0 1 1 16.500,260.000"
 />
</g>
<text
 x="0"
 y="0"
 font-size="x-small"
 font-family="sans-serif"
 fill="black"
 text-anchor="middle"
 dominant-baseline="central"
 transform="translate(0.000,260.000)"
>
10100
</text>
<g
 stroke-width="0.70292"
 stroke="black"
 fill="white"
>
<path
 id="168"
 d="M -167.348,183.848 A 16.50000000000003 16.5 0.0 1 1 -200.348,183.848 A 16.50000000000003 16.5 0.0 1 1 -167.348,183.848"
 />
</g>
<text
 x="0"
 y="0"
 font-size="x-small"
 font-family="sans-serif"
 fill="black"
 text-anchor="middle"
 dominant-baseline="central"
 transform="translate(-183.848,183.848)"
>
11100
</text>
<g
 stroke-width="0.70292"
 stroke="black"
 fill="white"
>
<path
 id="169"
 d="M 200.348,-183.848 A 16.5 16.5 0.0 1 1 167.348,-183.848 A 16.5 16.5 0.0 1 1 200.348,-183.848"
 />
</g>
<text
 x="0"
 y="0"
 font-size="x-small"
 font-family="sans-serif"
 fill="black"
 text-anchor="middle"
 dominant-baseline="central"
 transform="translate(183.848,-183.848)"
>
00010
</text>
<g
 stroke-width="0.70292"
 stroke="black"
 fill="white"
>
<path
 id="170"
 d="M 16.500,-260.000 A 16.500000000000004 16.5 0.0 1 1 -16.500,-260.000 A 16.500000000000004 16.5 0.0 1 1 16.500,-260.000"
 />
</g>
<text
 x="0"
 y="0"
 font-size="x-small"
 font-family="sans-serif"
 fill="black"
 text-anchor="middle"
 dominant-baseline="central"
 transform="translate(0.000,-260.000)"
>
01010
</text>
<g
 stroke-width="0.70292"
 stroke="black"
 fill="white"
>
<path
 id="171"
 d="M 16.500,-150.000 A 16.5 16.5 0.0 1 1 -16.500,-150.000 A 16.5 16.5 0.0 1 1 16.500,-150.000"
 />
</g>
<text
 x="0"
 y="0"
 font-size="x-small"
 font-family="sans-serif"
 fill="black"
 text-anchor="middle"
 dominant-baseline="central"
 transform="translate(0.000,-150.000)"
>
10010
</text>
<g
 stroke-width="0.70292"
 stroke="black"
 fill="white"
>
<path
 id="172"
 d="M -167.348,-183.848 A 16.50000000000003 16.5 0.0 1 1 -200.348,-183.848 A 16.50000000000003 16.5 0.0 1 1 -167.348,-183.848"
 />
</g>
<text
 x="0"
 y="0"
 font-size="x-small"
 font-family="sans-serif"
 fill="black"
 text-anchor="middle"
 dominant-baseline="central"
 transform="translate(-183.848,-183.848)"
>
11010
</text>
<g
 stroke-width="0.70292"
 stroke="black"
 fill="Red"
>
<path
 id="173"
 d="M 166.500,0.000 A 16.5 16.5 0.0 1 1 133.500,0.000 A 16.5 16.5 0.0 1 1 166.500,0.000"
 />
</g>
<text
 x="0"
 y="0"
 font-size="x-small"
 font-family="sans-serif"
 fill="black"
 text-anchor="middle"
 dominant-baseline="central"
 transform="translate(150.000,0.000)"
>
00110
</text>
<g
 stroke-width="0.70292"
 stroke="black"
 fill="white"
>
<path
 id="174"
 d="M -89.566,-106.066 A 16.5 16.5 0.0 1 1 -122.566,-106.066 A 16.5 16.5 0.0 1 1 -89.566,-106.066"
 />
</g>
<text
 x="0"
 y="0"
 font-size="x-small"
 font-family="sans-serif"
 fill="black"
 text-anchor="middle"
 dominant-baseline="central"
 transform="translate(-106.066,-106.066)"
>
01110
</text>
<g
 stroke-width="0.70292"
 stroke="black"
 fill="white"
>
<path
 id="175"
 d="M -89.566,106.066 A 16.5 16.500000000000014 0.0 1 1 -122.566,106.066 A 16.5 16.500000000000014 0.0 1 1 -89.566,106.066"
 />
</g>
<text
 x="0"
 y="0"
 font-size="x-small"
 font-family="sans-serif"
 fill="black"
 text-anchor="middle"
 dominant-baseline="central"
 transform="translate(-106.066,106.066)"
>
10110
</text>
<g
 stroke-width="0.70292"
 stroke="black"
 fill="Red"
>
<path
 id="176"
 d="M -243.500,-0.000 A 16.5 16.5 0.0 1 1 -276.500,-0.000 A 16.5 16.5 0.0 1 1 -243.500,-0.000"
 />
</g>
<text
 x="0"
 y="0"
 font-size="x-small"
 font-family="sans-serif"
 fill="black"
 text-anchor="middle"
 dominant-baseline="central"
 transform="translate(-260.000,-0.000)"
>
11110
</text>
<g
 stroke-width="0.70292"
 stroke="black"
 fill="white"
>
<path
 id="177"
 d="M 226.500,0.000 A 16.5 16.5 0.0 1 1 193.500,0.000 A 16.5 16.5 0.0 1 1 226.500,0.000"
 />
</g>
<text
 x="0"
 y="0"
 font-size="x-small"
 font-family="sans-serif"
 fill="black"
 text-anchor="middle"
 dominant-baseline="central"
 transform="translate(210.000,0.000)"
>
00001
</text>
<g
 stroke-width="0.70292"
 stroke="black"
 fill="white"
>
<path
 id="178"
 d="M 80.140,-63.640 A 16.500000000000007 16.500000000000007 0.0 1 1 47.140,-63.640 A 16.500000000000007 16.500000000000007 0.0 1 1 80.140,-63.640"
 />
</g>
<text
 x="0"
 y="0"
 font-size="x-small"
 font-family="sans-serif"
 fill="black"
 text-anchor="middle"
 dominant-baseline="central"
 transform="translate(63.640,-63.640)"
>
01001
</text>
<g
 stroke-width="0.70292"
 stroke="black"
 fill="white"
>
<path
 id="179"
 d="M 80.140,63.640 A 16.500000000000007 16.5 0.0 1 1 47.140,63.640 A 16.500000000000007 16.5 0.0 1 1 80.140,63.640"
 />
</g>
<text
 x="0"
 y="0"
 font-size="x-small"
 font-family="sans-serif"
 fill="black"
 text-anchor="middle"
 dominant-baseline="central"
 transform="translate(63.640,63.640)"
>
10001
</text>
<g
 stroke-width="0.70292"
 stroke="black"
 fill="Red"
>
<path
 id="180"
 d="M -73.500,-0.000 A 16.5 16.5 0.0 1 1 -106.500,-0.000 A 16.5 16.5 0.0 1 1 -73.500,-0.000"
 />
</g>
<text
 x="0"
 y="0"
 font-size="x-small"
 font-family="sans-serif"
 fill="black"
 text-anchor="middle"
 dominant-baseline="central"
 transform="translate(-90.000,-0.000)"
>
11001
</text>
<g
 stroke-width="0.70292"
 stroke="black"
 fill="white"
>
<path
 id="181"
 d="M 164.992,148.492 A 16.50000000000003 16.5 0.0 1 1 131.992,148.492 A 16.50000000000003 16.5 0.0 1 1 164.992,148.492"
 />
</g>
<text
 x="0"
 y="0"
 font-size="x-small"
 font-family="sans-serif"
 fill="black"
 text-anchor="middle"
 dominant-baseline="central"
 transform="translate(148.492,148.492)"
>
00101
</text>
<g
 stroke-width="0.70292"
 stroke="black"
 fill="white"
>
<path
 id="182"
 d="M 16.500,90.000 A 16.5 16.5 0.0 1 1 -16.500,90.000 A 16.5 16.5 0.0 1 1 16.500,90.000"
 />
</g>
<text
 x="0"
 y="0"
 font-size="x-small"
 font-family="sans-serif"
 fill="black"
 text-anchor="middle"
 dominant-baseline="central"
 transform="translate(0.000,90.000)"
>
01101
</text>
<g
 stroke-width="0.70292"
 stroke="black"
 fill="white"
>
<path
 id="183"
 d="M 16.500,210.000 A 16.5 16.5 0.0 1 1 -16.500,210.000 A 16.5 16.5 0.0 1 1 16.500,210.000"
 />
</g>
<text
 x="0"
 y="0"
 font-size="x-small"
 font-family="sans-serif"
 fill="black"
 text-anchor="middle"
 dominant-baseline="central"
 transform="translate(0.000,210.000)"
>
10101
</text>
<g
 stroke-width="0.70292"
 stroke="black"
 fill="white"
>
<path
 id="184"
 d="M -131.992,148.492 A 16.5 16.5 0.0 1 1 -164.992,148.492 A 16.5 16.5 0.0 1 1 -131.992,148.492"
 />
</g>
<text
 x="0"
 y="0"
 font-size="x-small"
 font-family="sans-serif"
 fill="black"
 text-anchor="middle"
 dominant-baseline="central"
 transform="translate(-148.492,148.492)"
>
11101
</text>
<g
 stroke-width="0.70292"
 stroke="black"
 fill="white"
>
<path
 id="185"
 d="M 164.992,-148.492 A 16.50000000000003 16.5 0.0 1 1 131.992,-148.492 A 16.50000000000003 16.5 0.0 1 1 164.992,-148.492"
 />
</g>
<text
 x="0"
 y="0"
 font-size="x-small"
 font-family="sans-serif"
 fill="black"
 text-anchor="middle"
 dominant-baseline="central"
 transform="translate(148.492,-148.492)"
>
00011
</text>
<g
 stroke-width="0.70292"
 stroke="black"
 fill="white"
>
<path
 id="186"
 d="M 16.500,-210.000 A 16.5 16.5 0.0 1 1 -16.500,-210.000 A 16.5 16.5 0.0 1 1 16.500,-210.000"
 />
</g>
<text
 x="0"
 y="0"
 font-size="x-small"
 font-family="sans-serif"
 fill="black"
 text-anchor="middle"
 dominant-baseline="central"
 transform="translate(0.000,-210.000)"
>
01011
</text>
<g
 stroke-width="0.70292"
 stroke="black"
 fill="Red"
>
<path
 id="187"
 d="M 16.500,-90.000 A 16.5 16.5 0.0 1 1 -16.500,-90.000 A 16.5 16.5 0.0 1 1 16.500,-90.000"
 />
</g>
<text
 x="0"
 y="0"
 font-size="x-small"
 font-family="sans-serif"
 fill="black"
 text-anchor="middle"
 dominant-baseline="central"
 transform="translate(0.000,-90.000)"
>
10011
</text>
<g
 stroke-width="0.70292"
 stroke="black"
 fill="white"
>
<path
 id="188"
 d="M -131.992,-148.492 A 16.5 16.50000000000003 0.0 1 1 -164.992,-148.492 A 16.5 16.50000000000003 0.0 1 1 -131.992,-148.492"
 />
</g>
<text
 x="0"
 y="0"
 font-size="x-small"
 font-family="sans-serif"
 fill="black"
 text-anchor="middle"
 dominant-baseline="central"
 transform="translate(-148.492,-148.492)"
>
11011
</text>
<g
 stroke-width="0.70292"
 stroke="black"
 fill="Red"
>
<path
 id="189"
 d="M 106.500,0.000 A 16.5 16.5 0.0 1 1 73.500,0.000 A 16.5 16.5 0.0 1 1 106.500,0.000"
 />
</g>
<text
 x="0"
 y="0"
 font-size="x-small"
 font-family="sans-serif"
 fill="black"
 text-anchor="middle"
 dominant-baseline="central"
 transform="translate(90.000,0.000)"
>
00111
</text>
<g
 stroke-width="0.70292"
 stroke="black"
 fill="white"
>
<path
 id="190"
 d="M -47.140,-63.640 A 16.5 16.500000000000007 0.0 1 1 -80.140,-63.640 A 16.5 16.500000000000007 0.0 1 1 -47.140,-63.640"
 />
</g>
<text
 x="0"
 y="0"
 font-size="x-small"
 font-family="sans-serif"
 fill="black"
 text-anchor="middle"
 dominant-baseline="central"
 transform="translate(-63.640,-63.640)"
>
01111
</text>
<g
 stroke-width="0.70292"
 stroke="black"
 fill="white"
>
<path
 id="191"
 d="M -47.140,63.640 A 16.5 16.500000000000007 0.0 1 1 -80.140,63.640 A 16.5 16.500000000000007 0.0 1 1 -47.140,63.640"
 />
</g>
<text
 x="0"
 y="0"
 font-size="x-small"
 font-family="sans-serif"
 fill="black"
 text-anchor="middle"
 dominant-baseline="central"
 transform="translate(-63.640,63.640)"
>
10111
</text>
<g
 stroke-width="0.70292"
 stroke="black"
 fill="white"
>
<path
 id="192"
 d="M -193.500,-0.000 A 16.5 16.5 0.0 1 1 -226.500,-0.000 A 16.5 16.5 0.0 1 1 -193.500,-0.000"
 />
</g>
<text
 x="0"
 y="0"
 font-size="x-small"
 font-family="sans-serif"
 fill="black"
 text-anchor="middle"
 dominant-baseline="central"
 transform="translate(-210.000,-0.000)"
>
11111
</text>
</svg>
